<?xml version="1.0" standalone="no"?>
<!DOCTYPE svg PUBLIC "-//W3C//DTD SVG 20010904//EN"
 "http://www.w3.org/TR/2001/REC-SVG-20010904/DTD/svg10.dtd">
<svg version="1.0" xmlns="http://www.w3.org/2000/svg"
 width="340.000000pt" height="340.000000pt" viewBox="0 0 340.000000 340.000000"
 preserveAspectRatio="xMidYMid meet">
<metadata>
Created by potrace 1.11, written by Peter Selinger 2001-2013
</metadata>
<g transform="translate(0.000000,340.000000) scale(0.100000,-0.100000)"
fill="#000000" stroke="none">
<path d="M2613 2479 c-24 -12 -58 -40 -75 -63 -18 -22 -36 -42 -40 -44 -5 -2
-8 -9 -8 -17 0 -7 -7 -18 -15 -25 -8 -7 -12 -16 -9 -21 3 -5 0 -9 -6 -9 -6 0
-8 -4 -5 -10 3 -5 2 -10 -4 -10 -11 0 -54 -110 -46 -118 3 -3 5 -1 5 4 0 5 10
25 22 44 12 19 22 39 23 43 0 4 5 11 11 15 5 4 23 24 39 45 53 71 140 104 208
78 30 -12 108 -91 101 -102 -3 -5 0 -9 7 -9 7 0 10 -3 6 -6 -3 -4 0 -13 8 -20
16 -17 42 -101 62 -206 10 -56 13 -131 11 -264 -3 -161 -5 -187 -20 -198 -28
-21 -38 -58 -23 -92 16 -38 8 -91 -17 -108 -12 -9 -15 -15 -7 -18 13 -4 3 -68
-11 -68 -5 0 -7 -7 -4 -15 4 -8 1 -15 -6 -15 -6 0 -8 -4 -5 -10 3 -5 1 -10 -5
-10 -7 0 -10 -7 -6 -15 3 -8 1 -15 -5 -15 -6 0 -7 -4 -4 -10 3 -5 3 -10 -2
-10 -4 0 -17 -19 -28 -42 -40 -84 -153 -178 -215 -178 -29 0 -112 46 -127 69
-10 16 -6 24 34 57 73 61 93 137 53 201 -51 85 -226 57 -291 -45 -51 -81 -48
-148 10 -193 21 -17 37 -20 94 -17 l68 3 29 -52 c49 -85 137 -123 217 -92 39
14 79 54 120 119 20 30 41 58 47 62 6 4 7 8 2 8 -5 0 -3 7 4 15 7 8 9 15 6 15
-4 0 -1 6 6 14 8 8 27 52 42 100 25 76 30 84 46 76 31 -16 103 -11 137 9 51
32 53 100 4 138 -9 7 -35 18 -58 24 -41 11 -80 39 -54 39 7 0 9 5 6 10 -9 14
41 13 65 -2 15 -10 23 -9 39 6 12 11 21 22 21 26 0 13 -67 40 -100 40 l-33 0
8 43 c9 48 13 317 5 332 -2 6 -6 28 -7 50 -1 22 -7 60 -13 84 -6 24 -8 46 -5
49 2 3 1 10 -4 16 -4 6 -14 34 -21 61 -15 57 -57 146 -74 157 -6 4 -7 8 -2 8
12 0 -41 48 -78 71 -40 25 -81 24 -133 -2z m384 -1060 c19 -17 8 -44 -20 -47
-38 -5 -67 14 -67 44 0 25 2 26 38 19 20 -4 42 -11 49 -16z"/>
<path d="M480 2209 c-51 -21 -91 -62 -125 -129 -19 -38 -35 -74 -35 -80 0 -23
29 -8 54 29 31 44 74 60 143 53 30 -3 43 -9 46 -23 3 -10 2 -19 -2 -19 -4 0
-15 -69 -25 -152 -19 -154 -41 -233 -70 -244 -9 -3 -14 -10 -11 -14 3 -5 -5
-16 -17 -24 -12 -9 -19 -16 -15 -16 4 0 -2 -9 -13 -20 -23 -23 -23 -78 0 -105
15 -18 71 -29 105 -21 25 6 78 73 69 88 -3 4 -1 8 5 8 5 0 8 8 6 18 -1 9 2 22
7 29 6 7 8 18 5 25 -2 7 -1 20 3 28 10 19 21 99 25 172 1 31 5 60 8 65 3 4 8
51 12 105 7 87 9 96 29 100 27 5 154 3 160 -3 2 -2 -2 -65 -10 -139 -26 -251
-20 -337 32 -426 16 -29 36 -46 64 -58 50 -20 64 -20 103 -1 34 16 107 75 94
75 -5 0 -2 7 7 15 28 29 50 155 27 155 -20 0 -41 -13 -35 -21 3 -6 0 -16 -6
-24 -7 -8 -9 -15 -5 -15 4 0 -4 -11 -19 -25 -38 -35 -84 -34 -121 5 -36 38
-37 41 -36 180 1 174 5 240 14 240 5 0 5 5 2 10 -16 26 15 37 97 35 46 -1 89
0 96 3 8 3 12 26 12 68 l0 64 -327 -1 c-191 0 -338 -4 -353 -10z"/>
<path d="M2276 2042 c6 -4 9 -16 7 -27 -8 -42 -9 -61 -2 -75 4 -8 4 -34 -1
-58 -4 -23 -4 -45 1 -47 4 -3 4 -18 -1 -34 -4 -15 -4 -34 0 -41 5 -7 4 -24 -1
-37 -5 -15 -5 -23 2 -23 6 0 6 -7 1 -17 -9 -19 -9 -54 1 -69 3 -5 2 -28 -3
-52 -4 -23 -3 -45 1 -48 5 -3 5 -13 0 -22 -6 -11 -6 -24 0 -34 6 -11 6 -19 -1
-23 -23 -14 5 -25 65 -25 l64 0 3 73 c2 39 2 183 0 320 l-3 247 -72 0 c-40 0
-67 -4 -61 -8z"/>
<path d="M2083 1734 c-2 -6 -4 -18 -2 -25 1 -8 1 -37 0 -66 l-1 -51 -34 10
c-49 15 -105 2 -137 -33 -78 -83 -27 -259 75 -259 20 0 51 6 69 14 28 11 36
11 52 0 26 -19 49 -17 70 6 16 18 16 20 1 35 -19 19 -18 7 -18 215 l0 165 -35
1 c-19 0 -37 -5 -40 -12z m-35 -204 c32 -19 36 -30 32 -80 -2 -29 -35 -65 -67
-74 -51 -16 -80 103 -37 150 28 29 30 29 72 4z"/>
<path d="M1357 1723 c-4 -3 -39 -6 -77 -5 l-70 2 2 -202 3 -203 30 -1 c49 -1
53 3 53 69 0 34 0 68 1 75 2 24 30 11 63 -29 18 -23 43 -52 55 -65 12 -13 19
-24 16 -24 -4 0 -2 -5 4 -11 12 -12 113 -21 113 -10 0 3 -18 25 -40 49 -21 23
-36 42 -32 42 4 1 -4 10 -17 20 -13 11 -20 20 -16 20 3 0 -1 8 -11 17 -13 14
-14 18 -3 22 24 7 57 49 64 81 9 41 -2 86 -28 114 -20 21 -32 26 -88 42 -8 2
-19 1 -22 -3z m43 -82 c30 -56 -6 -115 -67 -109 -36 4 -36 4 -37 53 -1 28 4
54 12 62 21 20 79 17 92 -6z"/>
<path d="M1630 1590 c-30 -11 -56 -20 -57 -20 -8 -1 -1 -27 11 -43 13 -17 16
-17 66 3 58 23 80 21 80 -9 0 -19 -25 -31 -70 -31 -14 0 -42 -11 -63 -25 -33
-23 -37 -30 -37 -70 0 -35 5 -48 26 -64 30 -24 88 -28 129 -9 21 9 31 9 46 0
25 -16 39 -15 60 4 17 15 17 18 2 41 -12 17 -16 48 -16 115 0 90 0 90 -31 109
-38 23 -75 23 -146 -1z m100 -170 c0 -23 -41 -53 -67 -48 -26 5 -22 40 7 55
37 19 60 16 60 -7z"/>
<path d="M2519 1563 c-3 -185 -2 -197 24 -225 31 -34 86 -38 135 -8 31 19 32
19 32 1 0 -15 7 -19 37 -18 l37 2 0 140 0 140 -37 3 -37 3 0 -90 0 -90 -45
-26 c-24 -15 -49 -24 -54 -21 -5 3 -8 54 -8 113 l1 108 -42 3 -42 3 -1 -38z"/>
</g>
</svg>
